<mxfile host="Electron" agent="Mozilla/5.0 (Windows NT 10.0; Win64; x64) AppleWebKit/537.36 (KHTML, like Gecko) draw.io/28.0.6 Chrome/138.0.7204.100 Electron/37.2.3 Safari/537.36" version="28.0.6">
  <diagram name="Страница — 1" id="t-6cA8YwKGQyWtK3S0vp">
    <mxGraphModel dx="2722" dy="1327" grid="1" gridSize="10" guides="1" tooltips="1" connect="1" arrows="1" fold="1" page="1" pageScale="1" pageWidth="827" pageHeight="1169" math="0" shadow="0">
      <root>
        <mxCell id="0" />
        <mxCell id="1" parent="0" />
        <mxCell id="3oOGd_56CYpTkWvy6MEh-1" value="" style="endArrow=classic;html=1;rounded=0;" parent="1" edge="1">
          <mxGeometry width="50" height="50" relative="1" as="geometry">
            <mxPoint x="-476" y="540" as="sourcePoint" />
            <mxPoint x="324" y="540" as="targetPoint" />
          </mxGeometry>
        </mxCell>
        <mxCell id="3oOGd_56CYpTkWvy6MEh-2" value="" style="triangle;whiteSpace=wrap;html=1;" parent="1" vertex="1">
          <mxGeometry x="334" y="470" width="100" height="140" as="geometry" />
        </mxCell>
        <mxCell id="3oOGd_56CYpTkWvy6MEh-3" value="" style="endArrow=classic;html=1;rounded=0;" parent="1" edge="1">
          <mxGeometry width="50" height="50" relative="1" as="geometry">
            <mxPoint x="-317" y="380" as="sourcePoint" />
            <mxPoint x="-217" y="540" as="targetPoint" />
          </mxGeometry>
        </mxCell>
        <mxCell id="3oOGd_56CYpTkWvy6MEh-4" value="" style="endArrow=classic;html=1;rounded=0;" parent="1" edge="1">
          <mxGeometry width="50" height="50" relative="1" as="geometry">
            <mxPoint x="-65" y="380" as="sourcePoint" />
            <mxPoint x="35" y="540" as="targetPoint" />
          </mxGeometry>
        </mxCell>
        <mxCell id="3oOGd_56CYpTkWvy6MEh-5" value="" style="endArrow=classic;html=1;rounded=0;" parent="1" edge="1">
          <mxGeometry width="50" height="50" relative="1" as="geometry">
            <mxPoint x="184" y="380" as="sourcePoint" />
            <mxPoint x="284" y="540" as="targetPoint" />
          </mxGeometry>
        </mxCell>
        <mxCell id="3oOGd_56CYpTkWvy6MEh-6" value="" style="endArrow=classic;html=1;rounded=0;" parent="1" edge="1">
          <mxGeometry width="50" height="50" relative="1" as="geometry">
            <mxPoint x="-185" y="700" as="sourcePoint" />
            <mxPoint x="-75" y="540" as="targetPoint" />
          </mxGeometry>
        </mxCell>
        <mxCell id="3oOGd_56CYpTkWvy6MEh-7" value="" style="endArrow=classic;html=1;rounded=0;" parent="1" edge="1">
          <mxGeometry width="50" height="50" relative="1" as="geometry">
            <mxPoint x="94" y="700" as="sourcePoint" />
            <mxPoint x="204" y="540" as="targetPoint" />
          </mxGeometry>
        </mxCell>
        <mxCell id="3oOGd_56CYpTkWvy6MEh-8" value="Персонал" style="text;html=1;align=center;verticalAlign=middle;whiteSpace=wrap;rounded=0;fontStyle=1" parent="1" vertex="1">
          <mxGeometry x="-307" y="370" width="60" height="30" as="geometry" />
        </mxCell>
        <mxCell id="3oOGd_56CYpTkWvy6MEh-9" value="Процессы" style="text;html=1;align=center;verticalAlign=middle;whiteSpace=wrap;rounded=0;fontStyle=1" parent="1" vertex="1">
          <mxGeometry x="-54" y="370" width="60" height="30" as="geometry" />
        </mxCell>
        <mxCell id="3oOGd_56CYpTkWvy6MEh-10" value="Интеграция" style="text;html=1;align=center;verticalAlign=middle;whiteSpace=wrap;rounded=0;fontStyle=1" parent="1" vertex="1">
          <mxGeometry x="198" y="370" width="60" height="30" as="geometry" />
        </mxCell>
        <mxCell id="3oOGd_56CYpTkWvy6MEh-11" value="Программное&lt;div&gt;обеспечение&lt;/div&gt;" style="text;html=1;align=center;verticalAlign=middle;whiteSpace=wrap;rounded=0;fontStyle=1" parent="1" vertex="1">
          <mxGeometry x="-159" y="680" width="60" height="30" as="geometry" />
        </mxCell>
        <mxCell id="3oOGd_56CYpTkWvy6MEh-12" value="Инфраструктура" style="text;html=1;align=center;verticalAlign=middle;whiteSpace=wrap;rounded=0;fontStyle=1" parent="1" vertex="1">
          <mxGeometry x="124" y="680" width="60" height="30" as="geometry" />
        </mxCell>
        <mxCell id="3oOGd_56CYpTkWvy6MEh-13" value="" style="endArrow=classic;html=1;rounded=0;" parent="1" edge="1">
          <mxGeometry width="50" height="50" relative="1" as="geometry">
            <mxPoint x="-480" y="420" as="sourcePoint" />
            <mxPoint x="-294" y="420" as="targetPoint" />
          </mxGeometry>
        </mxCell>
        <mxCell id="3oOGd_56CYpTkWvy6MEh-14" value="" style="endArrow=classic;html=1;rounded=0;" parent="1" edge="1">
          <mxGeometry width="50" height="50" relative="1" as="geometry">
            <mxPoint x="-477" y="490" as="sourcePoint" />
            <mxPoint x="-247" y="490" as="targetPoint" />
          </mxGeometry>
        </mxCell>
        <mxCell id="3oOGd_56CYpTkWvy6MEh-15" value="Сопротивление изменениям" style="text;html=1;align=center;verticalAlign=middle;resizable=0;points=[];autosize=1;strokeColor=none;fillColor=none;" parent="1" vertex="1">
          <mxGeometry x="-477" y="388" width="180" height="30" as="geometry" />
        </mxCell>
        <mxCell id="3oOGd_56CYpTkWvy6MEh-16" value="Обучение работе с новой&lt;div&gt;системой&lt;/div&gt;" style="text;html=1;align=center;verticalAlign=middle;resizable=0;points=[];autosize=1;strokeColor=none;fillColor=none;" parent="1" vertex="1">
          <mxGeometry x="-457" y="455" width="170" height="40" as="geometry" />
        </mxCell>
        <mxCell id="3oOGd_56CYpTkWvy6MEh-17" value="" style="endArrow=classic;html=1;rounded=0;" parent="1" edge="1">
          <mxGeometry width="50" height="50" relative="1" as="geometry">
            <mxPoint x="-219" y="432" as="sourcePoint" />
            <mxPoint x="-33" y="432" as="targetPoint" />
          </mxGeometry>
        </mxCell>
        <mxCell id="3oOGd_56CYpTkWvy6MEh-18" value="" style="endArrow=classic;html=1;rounded=0;" parent="1" edge="1">
          <mxGeometry width="50" height="50" relative="1" as="geometry">
            <mxPoint x="-218" y="502" as="sourcePoint" />
            <mxPoint x="12" y="502" as="targetPoint" />
          </mxGeometry>
        </mxCell>
        <mxCell id="3oOGd_56CYpTkWvy6MEh-19" value="Отсутствие формализованных&lt;div&gt;бизнес-процессов&lt;/div&gt;" style="text;html=1;align=center;verticalAlign=middle;resizable=0;points=[];autosize=1;strokeColor=none;fillColor=none;" parent="1" vertex="1">
          <mxGeometry x="-234" y="391" width="190" height="40" as="geometry" />
        </mxCell>
        <mxCell id="3oOGd_56CYpTkWvy6MEh-20" value="Отсутствие аналитики" style="text;html=1;align=center;verticalAlign=middle;resizable=0;points=[];autosize=1;strokeColor=none;fillColor=none;" parent="1" vertex="1">
          <mxGeometry x="-188" y="472" width="150" height="30" as="geometry" />
        </mxCell>
        <mxCell id="3oOGd_56CYpTkWvy6MEh-21" value="" style="endArrow=classic;html=1;rounded=0;" parent="1" edge="1">
          <mxGeometry width="50" height="50" relative="1" as="geometry">
            <mxPoint x="-355" y="600" as="sourcePoint" />
            <mxPoint x="-115" y="601" as="targetPoint" />
          </mxGeometry>
        </mxCell>
        <mxCell id="3oOGd_56CYpTkWvy6MEh-22" value="" style="endArrow=classic;html=1;rounded=0;" parent="1" edge="1">
          <mxGeometry width="50" height="50" relative="1" as="geometry">
            <mxPoint x="-355" y="671" as="sourcePoint" />
            <mxPoint x="-165" y="671" as="targetPoint" />
          </mxGeometry>
        </mxCell>
        <mxCell id="3oOGd_56CYpTkWvy6MEh-23" value="Отсутствие аудита" style="text;html=1;align=center;verticalAlign=middle;resizable=0;points=[];autosize=1;strokeColor=none;fillColor=none;" parent="1" vertex="1">
          <mxGeometry x="-286" y="565" width="130" height="30" as="geometry" />
        </mxCell>
        <mxCell id="3oOGd_56CYpTkWvy6MEh-24" value="Отсутствие разграничения&lt;div&gt;доступа к данным&lt;/div&gt;" style="text;html=1;align=center;verticalAlign=middle;resizable=0;points=[];autosize=1;strokeColor=none;fillColor=none;" parent="1" vertex="1">
          <mxGeometry x="-345" y="635" width="170" height="40" as="geometry" />
        </mxCell>
        <mxCell id="3oOGd_56CYpTkWvy6MEh-25" value="" style="endArrow=classic;html=1;rounded=0;" parent="1" edge="1">
          <mxGeometry width="50" height="50" relative="1" as="geometry">
            <mxPoint x="-72" y="590" as="sourcePoint" />
            <mxPoint x="168" y="591" as="targetPoint" />
          </mxGeometry>
        </mxCell>
        <mxCell id="3oOGd_56CYpTkWvy6MEh-26" value="" style="endArrow=classic;html=1;rounded=0;" parent="1" edge="1">
          <mxGeometry width="50" height="50" relative="1" as="geometry">
            <mxPoint x="-72" y="661" as="sourcePoint" />
            <mxPoint x="118" y="661" as="targetPoint" />
          </mxGeometry>
        </mxCell>
        <mxCell id="3oOGd_56CYpTkWvy6MEh-27" value="Отсутствие резервных копий&lt;div&gt;и стратегии при сбоях&lt;/div&gt;" style="text;html=1;align=center;verticalAlign=middle;resizable=0;points=[];autosize=1;strokeColor=none;fillColor=none;" parent="1" vertex="1">
          <mxGeometry x="-28" y="550" width="180" height="40" as="geometry" />
        </mxCell>
        <mxCell id="3oOGd_56CYpTkWvy6MEh-28" value="Отсутствие масштабируемой&lt;div&gt;инфраструктуры&lt;/div&gt;" style="text;html=1;align=center;verticalAlign=middle;resizable=0;points=[];autosize=1;strokeColor=none;fillColor=none;" parent="1" vertex="1">
          <mxGeometry x="-76" y="620" width="190" height="40" as="geometry" />
        </mxCell>
        <mxCell id="3oOGd_56CYpTkWvy6MEh-29" value="" style="endArrow=classic;html=1;rounded=0;" parent="1" edge="1">
          <mxGeometry width="50" height="50" relative="1" as="geometry">
            <mxPoint x="29" y="429" as="sourcePoint" />
            <mxPoint x="215" y="429" as="targetPoint" />
          </mxGeometry>
        </mxCell>
        <mxCell id="3oOGd_56CYpTkWvy6MEh-30" value="" style="endArrow=classic;html=1;rounded=0;" parent="1" edge="1">
          <mxGeometry width="50" height="50" relative="1" as="geometry">
            <mxPoint x="30" y="499" as="sourcePoint" />
            <mxPoint x="260" y="499" as="targetPoint" />
          </mxGeometry>
        </mxCell>
        <mxCell id="3oOGd_56CYpTkWvy6MEh-31" value="Интеграция между новыми и&lt;div&gt;существующими компонентами&lt;/div&gt;" style="text;html=1;align=center;verticalAlign=middle;resizable=0;points=[];autosize=1;strokeColor=none;fillColor=none;" parent="1" vertex="1">
          <mxGeometry x="9" y="388" width="200" height="40" as="geometry" />
        </mxCell>
        <mxCell id="3oOGd_56CYpTkWvy6MEh-32" value="Стандартизация и перенос&lt;div&gt;данных&lt;/div&gt;" style="text;html=1;align=center;verticalAlign=middle;resizable=0;points=[];autosize=1;strokeColor=none;fillColor=none;" parent="1" vertex="1">
          <mxGeometry x="50" y="464" width="170" height="40" as="geometry" />
        </mxCell>
      </root>
    </mxGraphModel>
  </diagram>
</mxfile>
